<svg width="229" height="40" viewBox="0 0 229 40" fill="none" xmlns="http://www.w3.org/2000/svg">
<path d="M43.82 30V16.112H46.984L47.264 18.464C47.6933 17.6427 48.3093 16.9893 49.112 16.504C49.9333 16.0187 50.8947 15.776 51.996 15.776C53.7133 15.776 55.048 16.3173 56 17.4C56.952 18.4827 57.428 20.0693 57.428 22.16V30H53.844V22.496C53.844 21.3013 53.6013 20.3867 53.116 19.752C52.6307 19.1173 51.8747 18.8 50.848 18.8C49.84 18.8 49.0093 19.1547 48.356 19.864C47.7213 20.5733 47.404 21.5627 47.404 22.832V30H43.82ZM66.0632 30.336C64.3272 30.336 62.9832 29.7947 62.0312 28.712C61.0978 27.6293 60.6312 26.0427 60.6312 23.952V16.112H64.1872V23.616C64.1872 24.8107 64.4298 25.7253 64.9152 26.36C65.4005 26.9947 66.1658 27.312 67.2112 27.312C68.2005 27.312 69.0125 26.9573 69.6472 26.248C70.3005 25.5387 70.6272 24.5493 70.6272 23.28V16.112H74.2112V30H71.0472L70.7672 27.648C70.3378 28.4693 69.7125 29.1227 68.8912 29.608C68.0885 30.0933 67.1458 30.336 66.0632 30.336ZM76.5743 30L81.6143 23.056L76.5743 16.112H80.4103L83.9383 21.04L87.4383 16.112H91.3023L86.2343 23.056L91.3023 30H87.4383L83.9383 25.072L80.4103 30H76.5743ZM99.7736 30C98.3176 30 97.151 29.6453 96.2736 28.936C95.3963 28.2267 94.9576 26.9667 94.9576 25.156V19.108H92.5776V16.112H94.9576L95.3776 12.388H98.5416V16.112H102.294V19.108H98.5416V25.184C98.5416 25.856 98.6816 26.3227 98.9616 26.584C99.2603 26.8267 99.7643 26.948 100.474 26.948H102.21V30H99.7736ZM104.195 33.108L111.195 8.244H114.695L107.667 33.108H104.195Z" fill="#003C3C"/>
<path d="M122.896 30.336C121.664 30.336 120.581 30.14 119.648 29.748C118.715 29.3373 117.968 28.7773 117.408 28.068C116.848 27.3587 116.512 26.5373 116.4 25.604H120.012C120.124 26.1453 120.423 26.612 120.908 27.004C121.412 27.3773 122.056 27.564 122.84 27.564C123.624 27.564 124.193 27.4053 124.548 27.088C124.921 26.7707 125.108 26.4067 125.108 25.996C125.108 25.3987 124.847 24.9973 124.324 24.792C123.801 24.568 123.073 24.3533 122.14 24.148C121.543 24.0173 120.936 23.8587 120.32 23.672C119.704 23.4853 119.135 23.252 118.612 22.972C118.108 22.6733 117.697 22.3 117.38 21.852C117.063 21.3853 116.904 20.816 116.904 20.144C116.904 18.912 117.389 17.876 118.36 17.036C119.349 16.196 120.731 15.776 122.504 15.776C124.147 15.776 125.453 16.1587 126.424 16.924C127.413 17.6893 128.001 18.744 128.188 20.088H124.8C124.595 19.0613 123.82 18.548 122.476 18.548C121.804 18.548 121.281 18.6787 120.908 18.94C120.553 19.2013 120.376 19.528 120.376 19.92C120.376 20.3307 120.647 20.6573 121.188 20.9C121.729 21.1427 122.448 21.3667 123.344 21.572C124.315 21.796 125.201 22.048 126.004 22.328C126.825 22.5893 127.479 22.9907 127.964 23.532C128.449 24.0547 128.692 24.8107 128.692 25.8C128.711 26.6587 128.487 27.4333 128.02 28.124C127.553 28.8147 126.881 29.356 126.004 29.748C125.127 30.14 124.091 30.336 122.896 30.336ZM131.867 30V16.112H135.031L135.311 18.464C135.74 17.6427 136.356 16.9893 137.159 16.504C137.98 16.0187 138.942 15.776 140.043 15.776C141.76 15.776 143.095 16.3173 144.047 17.4C144.999 18.4827 145.475 20.0693 145.475 22.16V30H141.891V22.496C141.891 21.3013 141.648 20.3867 141.163 19.752C140.678 19.1173 139.922 18.8 138.895 18.8C137.887 18.8 137.056 19.1547 136.403 19.864C135.768 20.5733 135.451 21.5627 135.451 22.832V30H131.867ZM150.834 13.956C150.181 13.956 149.639 13.76 149.21 13.368C148.799 12.976 148.594 12.4813 148.594 11.884C148.594 11.2867 148.799 10.8013 149.21 10.428C149.639 10.036 150.181 9.84 150.834 9.84C151.487 9.84 152.019 10.036 152.43 10.428C152.859 10.8013 153.074 11.2867 153.074 11.884C153.074 12.4813 152.859 12.976 152.43 13.368C152.019 13.76 151.487 13.956 150.834 13.956ZM149.042 30V16.112H152.626V30H149.042ZM156.367 36.16V16.112H159.559L159.951 18.1C160.399 17.484 160.987 16.9427 161.715 16.476C162.462 16.0093 163.423 15.776 164.599 15.776C165.906 15.776 167.072 16.0933 168.099 16.728C169.126 17.3627 169.938 18.2307 170.535 19.332C171.132 20.4333 171.431 21.684 171.431 23.084C171.431 24.484 171.132 25.7347 170.535 26.836C169.938 27.9187 169.126 28.7773 168.099 29.412C167.072 30.028 165.906 30.336 164.599 30.336C163.554 30.336 162.639 30.14 161.855 29.748C161.071 29.356 160.436 28.8053 159.951 28.096V36.16H156.367ZM163.843 27.2C164.982 27.2 165.924 26.8173 166.671 26.052C167.418 25.2867 167.791 24.2973 167.791 23.084C167.791 21.8707 167.418 20.872 166.671 20.088C165.924 19.304 164.982 18.912 163.843 18.912C162.686 18.912 161.734 19.304 160.987 20.088C160.259 20.8533 159.895 21.8427 159.895 23.056C159.895 24.2693 160.259 25.268 160.987 26.052C161.734 26.8173 162.686 27.2 163.843 27.2ZM181.437 30.336C180.018 30.336 178.767 30.028 177.685 29.412C176.602 28.796 175.743 27.9373 175.109 26.836C174.493 25.7347 174.185 24.4747 174.185 23.056C174.185 21.6373 174.493 20.3773 175.109 19.276C175.743 18.1747 176.602 17.316 177.685 16.7C178.767 16.084 180.018 15.776 181.437 15.776C183.21 15.776 184.703 16.2427 185.917 17.176C187.13 18.0907 187.905 19.36 188.24 20.984H184.461C184.274 20.312 183.901 19.7893 183.341 19.416C182.799 19.024 182.155 18.828 181.409 18.828C180.419 18.828 179.579 19.2013 178.889 19.948C178.198 20.6947 177.853 21.7307 177.853 23.056C177.853 24.3813 178.198 25.4173 178.889 26.164C179.579 26.9107 180.419 27.284 181.409 27.284C182.155 27.284 182.799 27.0973 183.341 26.724C183.901 26.3507 184.274 25.8187 184.461 25.128H188.24C187.905 26.696 187.13 27.956 185.917 28.908C184.703 29.86 183.21 30.336 181.437 30.336ZM196.21 30.336C195.015 30.336 194.035 30.1493 193.27 29.776C192.504 29.384 191.935 28.8707 191.562 28.236C191.188 27.6013 191.002 26.9013 191.002 26.136C191.002 24.848 191.506 23.8027 192.514 23C193.522 22.1973 195.034 21.796 197.05 21.796H200.578V21.46C200.578 20.508 200.307 19.808 199.766 19.36C199.224 18.912 198.552 18.688 197.75 18.688C197.022 18.688 196.387 18.8653 195.846 19.22C195.304 19.556 194.968 20.06 194.838 20.732H191.338C191.431 19.724 191.767 18.8467 192.346 18.1C192.943 17.3533 193.708 16.784 194.642 16.392C195.575 15.9813 196.62 15.776 197.778 15.776C199.756 15.776 201.315 16.2707 202.454 17.26C203.592 18.2493 204.162 19.6493 204.162 21.46V30H201.11L200.774 27.76C200.363 28.5067 199.784 29.1227 199.038 29.608C198.31 30.0933 197.367 30.336 196.21 30.336ZM197.022 27.536C198.048 27.536 198.842 27.2 199.402 26.528C199.98 25.856 200.344 25.0253 200.494 24.036H197.442C196.49 24.036 195.808 24.2133 195.398 24.568C194.987 24.904 194.782 25.324 194.782 25.828C194.782 26.3693 194.987 26.7893 195.398 27.088C195.808 27.3867 196.35 27.536 197.022 27.536ZM207.582 30V16.112H210.774L211.11 18.716C211.614 17.82 212.295 17.1107 213.154 16.588C214.031 16.0467 215.058 15.776 216.234 15.776V19.556H215.226C214.442 19.556 213.742 19.6773 213.126 19.92C212.51 20.1627 212.024 20.5827 211.67 21.18C211.334 21.7773 211.166 22.608 211.166 23.672V30H207.582ZM224.871 30C223.415 30 222.249 29.6453 221.371 28.936C220.494 28.2267 220.055 26.9667 220.055 25.156V19.108H217.675V16.112H220.055L220.475 12.388H223.639V16.112H227.391V19.108H223.639V25.184C223.639 25.856 223.779 26.3227 224.059 26.584C224.358 26.8267 224.862 26.948 225.571 26.948H227.307V30H224.871Z" fill="#ECC94B"/>
<path d="M28.5456 10.7325L17.6365 4.40886C16.6546 3.86371 15.1274 3.86371 14.1456 4.40886L3.23646 10.7325C2.36373 11.3867 1.6001 12.6951 1.6001 13.7853V26.3237C1.6001 27.414 2.36373 28.7223 3.34555 29.2675L14.2546 35.5911C15.2365 36.1363 16.7637 36.1363 17.7456 35.5911L28.6546 29.2675C29.6365 28.7223 30.4001 27.414 30.4001 26.3237V13.7853C30.291 12.6951 29.5274 11.3867 28.5456 10.7325V10.7325ZM25.6001 17.6014H24.5092V15.6388C24.5092 14.2215 23.4183 13.6763 21.2365 13.6763H21.1274C15.891 13.6763 16.3274 11.7138 16.2183 10.9506H16.1092C16.0001 11.7138 16.4365 13.6763 11.2001 13.6763H11.091C8.90919 13.6763 7.81828 14.1124 7.81828 15.6388V17.1652L25.6001 22.2896V24.4702C25.6001 26.5417 24.6183 27.7411 21.1274 27.7411H20.9092C18.291 27.7411 16.5456 28.2862 16.5456 30.4668H15.4546C15.4546 28.3952 13.8183 27.7411 11.091 27.7411C7.70919 27.7411 6.61828 26.5417 6.61828 24.4702V22.6167H7.70919V24.5792C7.70919 25.9966 8.8001 26.5417 10.9819 26.5417H11.091C16.3274 26.5417 15.891 28.5043 16.0001 29.2675H16.1092C16.2183 28.5043 15.7819 26.5417 21.0183 26.5417H21.2365C23.4183 26.5417 24.5092 26.1056 24.5092 24.5792V23.4889L6.61828 18.2555V15.7479C6.61828 13.6763 7.6001 12.477 11.091 12.477H11.3092C14.0365 12.477 15.6728 11.9319 15.6728 9.75128H16.7637C16.7637 11.8228 18.4001 12.477 21.1274 12.477H21.2365C24.6183 12.477 25.7092 13.6763 25.7092 15.7479L25.6001 17.6014V17.6014Z" fill="black"/>
</svg>
